<svg height="800" width="800" xmlns="http://www.w3.org/2000/svg" viewBox="0 0 382.232 382.232" xml:space="preserve"><path d="M114.752 241.364c21.007-.031 38.109-17.159 38.109-38.18v-11.372c0-1-.041-2.009-.123-3.021h-4.797c-9.186 0-12.68-8.54-14.289-13.969-9.049 4.248-30.23 13.407-56.899 13.944a37.612 37.612 0 0 0-.125 3.046v11.372c0 21.021 17.103 38.149 38.124 38.18z"/><path d="M362.232 22.764H20c-11.028 0-20 8.972-20 20v296.704c0 11.028 8.972 20 20 20h342.232c11.028 0 20-8.972 20-20V42.764c0-11.028-8.971-20-20-20zM107.14 56.014h167.953v40.57H107.14v-40.57zm230.832 103.238v28.183h-99.558v-28.183h99.558zM174.111 287.135l-.069 27.647H55.449l-.07-27.872v-21.638c0-11.496 12.688-15.96 21.951-19.22 1.975-.695 4.195-1.476 6.062-2.26l-.668-.733c-8.391-9.203-17.897-19.63-17.965-38.089l-1.117-14.283c-2.539-32.66 14.59-37.937 38.298-45.241 3.576-1.102 7.273-2.241 11.234-3.553 5.163-1.711 10.238-2.579 15.083-2.579 10.317 0 19.344 3.862 26.104 11.167 8.694 9.397 12.775 23.675 11.49 40.205l-1.117 14.283c-.068 18.459-9.575 28.886-17.965 38.089l-.668.733c1.867.785 4.087 1.565 6.062 2.26 9.264 3.26 21.951 7.724 21.951 19.22l-.003 21.864zm64.303-65.576h99.558v28.183h-99.558v-28.183zm101.667 90.49h-99.558v-28.183h99.558v28.183z"/><path d="m114.745 288.839 30.119-31.946H84.626z"/></svg>